<?xml version="1.0" encoding="UTF-8"?>
<svg width="224px" height="203px" viewBox="0 0 224 203" version="1.1" xmlns="http://www.w3.org/2000/svg" xmlns:xlink="http://www.w3.org/1999/xlink" shape-rendering="geometricPrecision">
    <defs></defs>
    <g id="Page-1" stroke="none" stroke-width="1" fill="none" fill-rule="evenodd">
        <g id="Monzo_vert_darkbg" transform="translate(-56.000000, 0.000000)">
            <g id="Group-6" transform="translate(56.000000, 0.000000)">
                <path d="M223.458,147.401 C223.458,150.144 222.368,152.775 220.429,154.715 L174.103,201.041 C171.496,203.647 167.039,201.801 167.039,198.115 L167.039,94.31 L222.815,38.847 L223.458,38.847 L223.458,147.401" id="Fill-1" fill="#D74F5E"></path>
                <path d="M186.49,1.879 C184.874,0.263 182.254,0.263 180.638,1.879 L111.754,70.763 L110.798,70.763 L110.798,148.509 L111.754,150.551 L223.458,38.847 L186.49,1.879" id="Fill-3" fill="#DBC390"></path>
                <path d="M0.05,147.401 C0.05,150.144 1.14,152.775 3.08,154.715 L49.406,201.041 C52.013,203.647 56.469,201.801 56.469,198.115 L56.469,94.31 L0.694,38.847 L0.05,38.847 L0.05,147.401" id="Fill-4" fill="#2A7179"></path>
                <path d="M42.87,1.879 C41.255,0.263 38.635,0.263 37.019,1.879 L0.05,38.847 L111.754,150.551 L111.754,70.763 L42.87,1.879" id="Fill-5" fill="#88AF98"></path>
            </g>
        </g>
    </g>
</svg>
